<svg xmlns="http://www.w3.org/2000/svg" viewBox="0 0 800 500" width="800" height="500">
  <defs>
    <linearGradient id="g" x1="0" y1="0" x2="800" y2="500" gradientUnits="userSpaceOnUse">
      <stop offset="0" stop-color="#0b1615" />
      <stop offset="1" stop-color="#06100f" />
    </linearGradient>
    <linearGradient id="accent" x1="0" y1="0" x2="800" y2="0" gradientUnits="userSpaceOnUse">
      <stop offset="0" stop-color="#2dd4bf" />
      <stop offset="1" stop-color="#38bdf8" />
    </linearGradient>
  </defs>
  <rect width="800" height="500" fill="url(#g)" />
  <rect x="0" y="0" width="800" height="6" fill="url(#accent)" />

  <!-- browser chrome -->
  <circle cx="42" cy="42" r="6" fill="#ef4444" opacity="0.7" />
  <circle cx="62" cy="42" r="6" fill="#facc15" opacity="0.7" />
  <circle cx="82" cy="42" r="6" fill="#22c55e" opacity="0.7" />
  <rect x="110" y="34" width="300" height="16" rx="8" fill="#132625" />

  <!-- hero copy -->
  <rect x="70" y="110" width="360" height="20" rx="6" fill="#134e4a" />
  <rect x="70" y="142" width="280" height="20" rx="6" fill="#134e4a" />
  <rect x="70" y="188" width="170" height="40" rx="20" fill="url(#accent)" />
  <text x="105" y="214" font-family="'Inter',sans-serif" font-weight="600" font-size="18" fill="#062825">Inscreva-se</text>

  <!-- testimonial cards -->
  <g opacity="0.9">
    <rect x="470" y="100" width="260" height="90" rx="14" fill="#0f2624" stroke="#1e3d3a" stroke-width="1.5" />
    <circle cx="500" cy="130" r="14" fill="#2dd4bf" opacity="0.5" />
    <rect x="524" y="122" width="150" height="10" rx="5" fill="#1e3d3a" />
    <rect x="524" y="140" width="110" height="10" rx="5" fill="#1e3d3a" />

    <rect x="470" y="204" width="260" height="90" rx="14" fill="#0f2624" stroke="#1e3d3a" stroke-width="1.5" />
    <circle cx="500" cy="234" r="14" fill="#38bdf8" opacity="0.5" />
    <rect x="524" y="226" width="150" height="10" rx="5" fill="#1e3d3a" />
    <rect x="524" y="244" width="110" height="10" rx="5" fill="#1e3d3a" />
  </g>

  <text x="80" y="380" font-family="'Space Grotesk','Inter',sans-serif" font-weight="700" font-size="38" fill="#f0fdfa">Curso 4 Temperamentos</text>
  <text x="80" y="416" font-family="'Inter',sans-serif" font-weight="500" font-size="20" fill="#5eead4">Landing page &#183; React + Tailwind</text>
</svg>
