<svg xmlns="http://www.w3.org/2000/svg" viewBox="0 0 800 500" width="800" height="500">
  <defs>
    <linearGradient id="g" x1="0" y1="0" x2="800" y2="500" gradientUnits="userSpaceOnUse">
      <stop offset="0" stop-color="#18181b" />
      <stop offset="1" stop-color="#09090b" />
    </linearGradient>
    <linearGradient id="accent" x1="0" y1="0" x2="800" y2="0" gradientUnits="userSpaceOnUse">
      <stop offset="0" stop-color="#9c8cff" />
      <stop offset="1" stop-color="#4c3fc0" />
    </linearGradient>
  </defs>
  <rect width="800" height="500" fill="url(#g)" />
  <rect x="0" y="0" width="800" height="6" fill="url(#accent)" />

  <!-- window chrome -->
  <circle cx="42" cy="42" r="6" fill="#ef4444" opacity="0.6" />
  <circle cx="62" cy="42" r="6" fill="#facc15" opacity="0.6" />
  <circle cx="82" cy="42" r="6" fill="#22c55e" opacity="0.6" />

  <!-- sidebar menu -->
  <g transform="translate(60,80)">
    <rect x="0" y="0" width="150" height="250" rx="12" fill="#1c1c21" stroke="#2a2a30" stroke-width="1.5" />
    <rect x="16" y="20" width="118" height="14" rx="6" fill="#4c3fc0" opacity="0.7" />
    <rect x="16" y="52" width="100" height="10" rx="5" fill="#2a2a30" />
    <rect x="16" y="80" width="110" height="10" rx="5" fill="#2a2a30" />
    <rect x="16" y="108" width="90" height="10" rx="5" fill="#2a2a30" />
    <rect x="16" y="136" width="104" height="10" rx="5" fill="#2a2a30" />
  </g>

  <!-- data table -->
  <g transform="translate(230,80)">
    <rect x="0" y="0" width="500" height="250" rx="12" fill="#1c1c21" stroke="#2a2a30" stroke-width="1.5" />
    <rect x="18" y="18" width="464" height="20" rx="6" fill="#27272a" />
    <g fill="#3f3f46">
      <rect x="18" y="52" width="464" height="1.5" />
      <rect x="18" y="90" width="464" height="1.5" />
      <rect x="18" y="128" width="464" height="1.5" />
      <rect x="18" y="166" width="464" height="1.5" />
      <rect x="18" y="204" width="464" height="1.5" />
    </g>
    <g fill="#8b8b95" font-family="'Inter',sans-serif" font-size="13">
      <rect x="18" y="66" width="140" height="10" rx="5" fill="#3f3f46" />
      <rect x="200" y="66" width="90" height="10" rx="5" fill="#2a2a30" />
      <rect x="330" y="66" width="60" height="10" rx="5" fill="#2a2a30" />

      <rect x="18" y="104" width="160" height="10" rx="5" fill="#3f3f46" />
      <rect x="200" y="104" width="90" height="10" rx="5" fill="#2a2a30" />
      <rect x="330" y="104" width="60" height="10" rx="5" fill="#2a2a30" />

      <rect x="18" y="142" width="130" height="10" rx="5" fill="#3f3f46" />
      <rect x="200" y="142" width="90" height="10" rx="5" fill="#2a2a30" />
      <rect x="330" y="142" width="60" height="10" rx="5" fill="#2a2a30" />

      <rect x="18" y="180" width="150" height="10" rx="5" fill="#3f3f46" />
      <rect x="200" y="180" width="90" height="10" rx="5" fill="#2a2a30" />
      <rect x="330" y="180" width="60" height="10" rx="5" fill="#2a2a30" />
    </g>
  </g>

  <text x="80" y="400" font-family="'Space Grotesk','Inter',sans-serif" font-weight="700" font-size="40" fill="#fafafa">Sistema Comercial</text>
  <text x="80" y="434" font-family="'Inter',sans-serif" font-weight="500" font-size="19" fill="#b3acff">Trabalho de Conclusão de Curso</text>
</svg>
